<?xml version="1.0" standalone="no"?>
<!DOCTYPE svg PUBLIC "-//W3C//DTD SVG 20010904//EN"
 "http://www.w3.org/TR/2001/REC-SVG-20010904/DTD/svg10.dtd">
<svg version="1.0" xmlns="http://www.w3.org/2000/svg"
 width="1280.000000pt" height="1014.000000pt" viewBox="0 0 1280.000000 1014.000000"
 preserveAspectRatio="xMidYMid meet">
<g transform="translate(0.000000,1014.000000) scale(0.100000,-0.100000)"
fill="wheat" stroke="none">
<path d="M1550 10128 c-228 -4 -583 -11 -787 -14 l-373 -6 0 -357 c0 -196 4
-362 9 -369 7 -12 179 -12 1033 -2 564 6 1036 8 1050 5 29 -7 19 12 442 -872
l316 -660 0 -2467 0 -2466 4000 0 c2200 0 4000 2 4000 5 0 16 1543 4742 1551
4750 5 5 9 131 9 287 l0 279 -352 -6 c-194 -3 -2020 -10 -4058 -15 -2038 -5
-3878 -12 -4090 -15 -212 -3 -390 -2 -397 3 -6 4 -169 336 -361 738 -192 402
-369 764 -392 805 -140 248 -277 335 -595 378 -88 12 -372 12 -1005 -1z
m10116 -2843 c6 -15 -101 -350 -119 -373 -7 -9 -175 -12 -801 -10 l-791 3 -3
192 -2 193 312 3 c1059 9 1399 7 1404 -8z m-2661 -190 l0 -190 -480 0 -480 0
-3 184 c-2 141 1 186 10 193 7 4 225 7 483 5 l470 -2 0 -190z m-3817 177 c9
-7 12 -51 10 -188 l-3 -179 -505 0 -505 0 -3 182 -2 183 407 3 c225 1 449 3
498 4 50 2 96 -1 103 -5z m1907 -182 l0 -185 -475 0 -475 0 -3 175 c-1 96 0
180 2 187 4 11 99 13 478 11 l473 -3 0 -185z m-1907 -1128 c9 -7 12 -73 10
-298 l-3 -289 -505 0 -505 0 -3 285 c-1 157 0 290 3 297 3 10 109 13 497 13
271 0 499 -4 506 -8z m1900 0 c9 -7 12 -73 10 -298 l-3 -289 -475 0 -475 0 -3
285 c-1 157 0 290 3 297 3 10 104 13 467 13 255 0 469 -4 476 -8z m1910 0 c9
-7 12 -73 10 -298 l-3 -289 -480 0 -480 0 -3 285 c-1 157 0 290 3 297 3 10
105 13 472 13 257 0 474 -4 481 -8z m2230 -1 c11 -6 -6 -68 -79 -292 -50 -156
-97 -287 -103 -291 -6 -4 -254 -7 -551 -5 l-540 2 -3 285 c-1 157 0 290 3 297
3 10 136 13 632 13 345 0 634 -4 641 -9z m-6033 -1816 l0 -290 -505 0 -505 0
-3 280 c-1 154 0 285 3 292 3 11 108 13 507 11 l503 -3 0 -290z m1900 0 l0
-290 -475 0 -475 0 -3 280 c-1 154 0 285 3 292 3 11 102 13 477 11 l473 -3 0
-290z m1910 0 l0 -290 -480 0 -480 0 -3 280 c-1 154 0 285 3 292 3 11 103 13
482 11 l478 -3 0 -290z m1731 282 c2 -7 -37 -139 -88 -293 l-93 -279 -300 0
-300 0 -3 280 c-1 154 0 285 3 292 7 19 773 19 781 0z"/>
<path d="M5079 2420 c-386 -37 -727 -257 -928 -597 -161 -273 -204 -631 -114
-943 69 -239 229 -472 424 -619 186 -141 346 -205 617 -247 109 -17 118 -17
239 0 167 24 275 56 409 121 452 219 717 687 673 1188 -25 288 -143 542 -348
748 -203 202 -452 320 -740 349 -111 11 -118 11 -232 0z m275 -606 c202 -50
387 -236 441 -443 21 -82 21 -226 0 -306 -86 -325 -421 -527 -739 -445 -126
32 -201 74 -291 165 -134 133 -192 282 -182 465 9 157 69 292 177 400 164 162
370 219 594 164z"/>
<path d="M9219 2420 c-552 -53 -999 -479 -1080 -1030 -25 -174 1 -426 61 -587
146 -391 486 -685 890 -767 199 -40 240 -42 392 -17 78 13 182 36 231 52 389
127 689 448 794 849 31 117 43 356 24 478 -67 421 -335 766 -725 932 -50 21
-127 48 -171 59 -73 18 -271 43 -320 40 -11 -1 -54 -5 -96 -9z m256 -601 c28
-6 88 -29 134 -51 157 -75 282 -229 326 -403 18 -69 20 -202 4 -277 -6 -29
-29 -91 -51 -138 -56 -116 -168 -230 -280 -284 -248 -119 -509 -75 -704 119
-134 132 -192 282 -182 469 21 382 373 646 753 565z"/>
</g>
</svg>
